<svg xmlns="http://www.w3.org/2000/svg" width="19.969" height="19.969" viewBox="0 0 19.969 19.969">
  <path id="search" d="M18.377,19.969h0L12.6,14.2a7.805,7.805,0,0,1-4.718,1.577,7.909,7.909,0,1,1,6.656-3.667c-.1.152-.205.31-.344.5l5.77,5.773-1.591,1.591ZM7.887,1.128A6.706,6.706,0,0,0,2.519,3.8a6.731,6.731,0,0,0,.571,8.848.234.234,0,0,0,.021.022.025.025,0,0,0,.009.008l.006,0A6.754,6.754,0,0,0,13.586,4.259a6.8,6.8,0,0,0-2.752-2.446A6.674,6.674,0,0,0,7.887,1.128Z" transform="translate(0 0)" fill="#4a4a4a"/>
</svg>
